<svg width="16" height="16" viewBox="0 0 16 16" fill="none" xmlns="http://www.w3.org/2000/svg">
<path fill-rule="evenodd" clip-rule="evenodd" d="M8.66061 1.9127C8.61674 1.5812 8.33407 1.33334 7.99967 1.33334C7.66521 1.33334 7.38254 1.58115 7.33874 1.9127L7.33801 1.91804L7.33494 1.9401C7.33201 1.96024 7.32747 1.99105 7.32114 2.03134C7.30854 2.11196 7.28894 2.23026 7.26147 2.37683C7.20634 2.67075 7.12047 3.07442 6.99747 3.51389C6.74147 4.4291 6.36081 5.36273 5.8616 5.86194C5.36239 6.36114 4.42876 6.74181 3.51355 6.99781C3.07408 7.12081 2.67041 7.20668 2.37649 7.26181C2.22992 7.28928 2.11162 7.30888 2.031 7.32148C1.99071 7.32781 1.95991 7.33234 1.93976 7.33528L1.9177 7.33834L1.91295 7.33901C1.91289 7.33901 1.91301 7.33901 1.91295 7.33901C1.91292 7.33901 1.91231 7.33908 1.91228 7.33908C1.58077 7.38294 1.33301 7.66561 1.33301 8.00001C1.33301 8.33448 1.58081 8.61714 1.91237 8.66094L1.9177 8.66168L1.93976 8.66474C1.95991 8.66768 1.99071 8.67221 2.031 8.67854C2.11162 8.69114 2.22992 8.71074 2.37649 8.73821C2.67041 8.79334 3.07408 8.87921 3.51355 9.00221C4.42876 9.25821 5.36239 9.63888 5.8616 10.1381C6.36081 10.6373 6.74147 11.5709 6.99747 12.4861C7.12047 12.9256 7.20634 13.3293 7.26147 13.6232C7.28894 13.7697 7.30854 13.8881 7.32114 13.9687C7.32747 14.0089 7.33201 14.0397 7.33494 14.0599L7.33801 14.082L7.33867 14.0867C7.33867 14.0867 7.33867 14.0868 7.33867 14.0867C7.38247 14.4183 7.66521 14.6667 7.99967 14.6667C8.33414 14.6667 8.61681 14.4189 8.66061 14.0873L8.66134 14.082L8.66441 14.0599C8.66734 14.0397 8.67187 14.0089 8.67821 13.9687C8.69081 13.8881 8.71041 13.7697 8.73787 13.6232C8.79301 13.3293 8.87887 12.9256 9.00187 12.4861C9.25787 11.5709 9.63854 10.6373 10.1377 10.1381C10.6369 9.63888 11.5706 9.25821 12.4858 9.00221C12.9253 8.87921 13.3289 8.79334 13.6229 8.73821C13.7694 8.71074 13.8877 8.69114 13.9683 8.67854C14.0086 8.67221 14.0394 8.66768 14.0596 8.66474L14.0817 8.66168L14.0864 8.66101C14.0863 8.66101 14.0865 8.66101 14.0864 8.66101C14.4179 8.61721 14.6663 8.33448 14.6663 8.00001C14.6663 7.66554 14.4185 7.38288 14.087 7.33908L14.0817 7.33834L14.0596 7.33528C14.0394 7.33234 14.0086 7.32781 13.9683 7.32148C13.8877 7.30888 13.7694 7.28928 13.6229 7.26181C13.3289 7.20668 12.9253 7.12081 12.4858 6.99781C11.5706 6.74181 10.6369 6.36114 10.1377 5.86194C9.63854 5.36273 9.25787 4.4291 9.00187 3.51389C8.87887 3.07442 8.79301 2.67075 8.73787 2.37683C8.71041 2.23026 8.69081 2.11196 8.67821 2.03134C8.67187 1.99105 8.66734 1.96024 8.66441 1.9401L8.66134 1.91804L8.66061 1.9127ZM11.2478 8.00001C10.5093 7.72854 9.73441 7.34421 9.19494 6.80474C8.65547 6.26529 8.27114 5.49044 7.99967 4.75185C7.72821 5.49044 7.34387 6.26529 6.80441 6.80474C6.26495 7.34421 5.4901 7.72854 4.75151 8.00001C5.4901 8.27148 6.26495 8.65581 6.80441 9.19528C7.34387 9.73474 7.72821 10.5096 7.99967 11.2481C8.27114 10.5096 8.65547 9.73474 9.19494 9.19528C9.73441 8.65581 10.5093 8.27148 11.2478 8.00001Z" fill="black"/>
</svg>
