<svg width="46" height="46" viewBox="0 0 46 46" fill="none" xmlns="http://www.w3.org/2000/svg">
<g clip-path="url(#clip0_36_759)">
<path d="M43.4442 35.8889C43.4442 36.8908 43.0462 37.8517 42.3377 38.5602C41.6293 39.2686 40.6684 39.6667 39.6664 39.6667H5.66645C4.66452 39.6667 3.70363 39.2686 2.99516 38.5602C2.28669 37.8517 1.88867 36.8908 1.88867 35.8889V15.1111C1.88867 14.1092 2.28669 13.1483 2.99516 12.4398C3.70363 11.7313 4.66452 11.3333 5.66645 11.3333H13.222L16.9998 5.66666H28.3331L32.1109 11.3333H39.6664C40.6684 11.3333 41.6293 11.7313 42.3377 12.4398C43.0462 13.1483 43.4442 14.1092 43.4442 15.1111V35.8889Z" stroke="#FAFAFA" stroke-opacity="0.6" stroke-width="4" stroke-linecap="round" stroke-linejoin="round"/>
<path d="M22.6664 32.1111C26.8393 32.1111 30.222 28.7284 30.222 24.5555C30.222 20.3827 26.8393 17 22.6664 17C18.4936 17 15.1109 20.3827 15.1109 24.5555C15.1109 28.7284 18.4936 32.1111 22.6664 32.1111Z" stroke="#FAFAFA" stroke-opacity="0.6" stroke-width="4" stroke-linecap="round" stroke-linejoin="round"/>
</g>
<defs>
<clipPath id="clip0_36_759">
<rect width="45.3333" height="45.3333" fill="white"/>
</clipPath>
</defs>
</svg>
