<svg width="20" height="20" viewBox="0 0 20 20" fill="none" xmlns="http://www.w3.org/2000/svg">
<path d="M12.4997 5.83333H14.9997C15.5468 5.83333 16.0887 5.9411 16.5942 6.1505C17.0997 6.35989 17.559 6.66681 17.946 7.05372C18.3329 7.44063 18.6398 7.89996 18.8492 8.40548C19.0586 8.911 19.1663 9.45282 19.1663 10C19.1663 10.5472 19.0586 11.089 18.8492 11.5945C18.6398 12.1 18.3329 12.5594 17.946 12.9463C17.559 13.3332 17.0997 13.6401 16.5942 13.8495C16.0887 14.0589 15.5468 14.1667 14.9997 14.1667H12.4997M7.49967 14.1667H4.99967C4.4525 14.1667 3.91068 14.0589 3.40516 13.8495C2.89964 13.6401 2.44031 13.3332 2.0534 12.9463C1.27199 12.1649 0.833008 11.1051 0.833008 10C0.833008 8.89493 1.27199 7.83512 2.0534 7.05372C2.8348 6.27232 3.89461 5.83333 4.99967 5.83333H7.49967M6.66634 10H13.333" stroke="#FAFAFA" stroke-opacity="0.4" stroke-width="1.5" stroke-linecap="round" stroke-linejoin="round"/>
</svg>
