<svg width="49" height="49" viewBox="0 0 49 49" fill="none" xmlns="http://www.w3.org/2000/svg">
<g clip-path="url(#clip0_19_233)">
<path d="M24.5 0C10.9682 0 0 10.9682 0 24.5C0 38.0318 10.9682 49 24.5 49C38.0318 49 49 38.0318 49 24.5C49 10.9682 38.0318 0 24.5 0ZM24.5 47.3959C11.8517 47.3959 1.6005 37.1447 1.6005 24.5C1.6005 11.8553 11.8517 1.60412 24.5 1.60412C37.1483 1.60412 47.3959 11.8553 47.3959 24.5C47.3959 37.1447 37.1483 47.3959 24.5 47.3959Z" fill="#E5E5E5"/>
<path d="M37.21 27.0347L27.0566 37.1881C26.7561 37.4887 26.2709 37.4887 25.9667 37.1881C25.8146 37.0361 25.7422 36.8369 25.7422 36.6414C25.7422 36.4458 25.8146 36.2503 25.9667 36.0982L36.1201 25.9448C36.4207 25.6442 36.9095 25.6442 37.21 25.9448C37.5106 26.2453 37.5106 26.7342 37.21 27.0347Z" fill="#E5E5E5"/>
<path d="M37.2787 19.7926L20.2163 36.8586C19.9121 37.1592 19.4269 37.1592 19.1264 36.8586C18.9779 36.7065 18.9019 36.511 18.9019 36.3155C18.9019 36.1199 18.9779 35.9172 19.1264 35.7687L36.1887 18.7027C36.4929 18.4022 36.9781 18.4022 37.2787 18.7027C37.5792 19.0033 37.5792 19.4921 37.2787 19.7926Z" fill="#E5E5E5"/>
<path d="M36.8949 13.2349L12.9453 37.1845C12.6448 37.4851 12.1595 37.4851 11.859 37.1845C11.7069 37.0324 11.6309 36.8369 11.6309 36.6414C11.6309 36.4458 11.7069 36.2431 11.859 36.0946L35.8086 12.145C36.1091 11.8444 36.5944 11.8444 36.8949 12.145C37.1954 12.4455 37.1954 12.9344 36.8949 13.2349Z" fill="#E5E5E5"/>
<path d="M30.3624 12.8728L13.2964 29.9388C12.9958 30.2394 12.507 30.2394 12.2064 29.9388C12.0544 29.7903 11.9819 29.5912 11.9819 29.392C11.9819 29.1929 12.0544 29.001 12.2064 28.8489L29.2724 11.7829C29.573 11.4823 30.0618 11.4823 30.3624 11.7829C30.6629 12.0871 30.6629 12.5723 30.3624 12.8728Z" fill="#E5E5E5"/>
<path d="M23.1168 12.9416L12.9634 23.0914C12.6628 23.392 12.174 23.392 11.8734 23.0914C11.7213 22.9393 11.6489 22.7438 11.6489 22.5483C11.6489 22.3527 11.7213 22.1499 11.8734 22.0015L22.0268 11.8517C22.3274 11.5511 22.8162 11.5511 23.1168 11.8517C23.4173 12.1522 23.4173 12.6375 23.1168 12.9416Z" fill="#E5E5E5"/>
</g>
<defs>
<clipPath id="clip0_19_233">
<rect width="49" height="49" fill="white"/>
</clipPath>
</defs>
</svg>
